<?xml version="1.0" encoding="UTF-8"?>
<svg id="Layer_1" data-name="Layer 1" xmlns="http://www.w3.org/2000/svg" viewBox="0 0 1000 1003.91">
  <defs>
    <style>
      .cls-1 {
        fill: none;
        opacity: 0;
      }
    </style>
  </defs>
  <rect class="cls-1" width="1000" height="1000"/>
  <g>
    <path d="m225.49,1003.91c-10.64-6.97-13.29-17.02-12.95-29.27,1.11-40.49-1.11-81.03,1.1-121.5,3.52-64.38,27.18-120.85,68.77-169.73,6.58-7.73,6.21-10.92-1.65-16.97-41.08-31.67-72.5-71.21-93.4-118.79-2.73-6.21-5.86-8.56-12.84-8.58-20.09-.05-40.35,2.22-59.96-5.41-37.35-14.53-59.04-41.87-63.02-81.05-3.96-39.05,12.6-69.94,46.11-90.5,7.88-4.83,10.63-9.58,10.25-18.3-1.55-34.71,2.63-68.8,12.18-102.23,2.51-8.77,7.08-15.43,16.89-16.75,8.21-1.11,14.76,1.88,19.4,8.64,4.26,6.22,3.31,13.06,1.44,19.78-7.94,28.41-11.46,57.32-11.01,86.82.1,6.48,1.79,8.38,8.2,8.35,107.8-.64,215.63,2.05,323.37-1.74,37.71-1.33,74-11.66,105.13-34.77,14.41-10.7,25.98-23.37,27.09-43.13.63-11.32,9.39-18.53,19.23-18.61,10.6-.09,18.01,5.82,19.42,17.89,3.31,28.26,22.98,42.86,45.21,54.91,28.19,15.27,58.9,22.41,90.75,24.07,21.19,1.1,42.45.7,63.66,1.4,6.4.21,8.17-1.66,8.26-8.21,1.76-134.35-79.17-247.05-207.47-288.07-25.85-8.27-52.55-12.55-79.69-12.78-44.1-.37-88.21-.58-132.31-.01-68.57.89-129.62,23.1-182.89,66.43-2.53,2.06-4.99,4.26-7.72,6.02-9.19,5.92-19.79,4.23-26.25-4-6.5-8.28-6.01-19.09,2.13-26.42,19.01-17.11,40.1-31.35,62.77-43.14C323.26,18.69,362.98,6.01,405.29,1.89c2.2-.21,4.31-1.24,6.46-1.89,60.13,0,120.26,0,180.39,0,10.01,4.3,20.94,3.49,31.39,5.47,86.3,16.36,155.35,60.25,207.74,130.22,46.63,62.27,67.35,132.93,64.75,210.48-.24,7.05,1.73,10.86,8.02,14.55,33.59,19.72,50.64,49.55,48.51,88.4-1.99,36.28-20.65,62.89-52.72,80.2-20.22,10.91-42.11,10.95-63.93,9.66-11.4-.68-16.83,2.66-21.61,13.45-20.65,46.59-52.54,84.6-92.96,115.43-5.93,4.52-6.92,7.51-1.5,13.33,6.87,7.37,12.98,15.54,18.7,23.86,30.73,44.65,48.88,93.69,51.75,148.17,2.13,40.49.4,81,1.26,121.49.26,12.22-2.23,22.4-13.14,29.21H225.49Zm132.52-616.4c-55.64,0-100.72,0-145.8,0-4.47,0-9.29-1.28-9.17,6.25.46,27.38-1.7,54.93,3.22,82.04,11.88,65.44,44.46,119.3,97.46,158.69,105.18,78.16,219.43,88.95,338.31,35.88,71.26-31.81,121.37-85.58,147.14-160.54,13.12-38.17,11.66-77.63,11.77-117.03.02-5.93-3.61-6.08-7.72-6.1-18.31-.09-36.38-2.39-54.2-6.37-36.72-8.21-71.02-21.56-98.93-47.98-9.81-9.28-9.64-9.19-19.79.09-39.51,36.1-87.95,49.47-139.6,53.61-44.34,3.55-88.82.81-122.69,1.47Zm143.01,577.22c42.48,0,84.96-.23,127.44.19,8.35.08,11.15-1.65,11-10.63-.57-33.65-.23-67.31-.15-100.97.03-13.74,7.35-21.96,19.33-22,12.21-.04,19.64,8.05,19.77,21.57.06,5.88.25,11.78-.05,17.64-.24,4.78,1.66,6.08,6.27,6.03,20.26-.2,40.52-.22,60.78.05,5.35.07,6.74-1.74,6.27-6.86-1.01-11.03-.74-22.1-2.3-33.17-7.37-52.33-29.16-97.58-64.84-136.43-3.78-4.12-6.36-3.81-10.65-1.45-17.18,9.42-34.84,18.29-53.86,22.85-15.5,3.71-21.38,11.23-24.57,27.25-8.76,43.9-49.26,75.75-96.58,73.95-49.64-1.89-88.48-38.89-92.99-86.7-.63-6.68-4-8.9-9.36-10.31-23.1-6.08-45.01-15.33-65.91-26.67-5.86-3.18-8.3-1.95-12.07,2.19-43.55,47.89-65.33,104.27-66.63,168.84-.11,5.51,1.89,6.54,6.74,6.47,14.37-.23,28.75-.08,43.13-.07q23.45.03,23.71-22.87c.16-14.23,7.59-22.46,20.11-22.27,11.95.18,19.05,8.37,19.06,22.2.03,33.66.27,67.32-.18,100.97-.11,7.95,1.7,10.49,10.05,10.4,42.15-.44,84.31-.2,126.46-.2ZM163.55,431.29c0-9.35.01-16.85,0-24.36q-.05-20.54-20.35-19.14c-24.7,1.71-44.47,17.41-50.8,40.37-6.53,23.67,2.26,47.44,22.23,62,16.12,11.75,34.43,10.24,52.63,9.82,5.06-.12,3.09-3.85,2.47-6.48-4.96-21.07-5.42-42.57-6.17-62.21Zm687.49,68.84c33.06,2.5,59.7-19.97,62.53-52.39,2.94-33.71-23.58-60.35-59.42-60.21-16.33.06-13.64-1.36-13.75,13.4-.2,27.06.66,54.19-3.89,80.98-3.11,18.32-3.56,18.24,14.52,18.22Zm-293,237.6c-1.31-.1-2.61-.46-3.84-.27-34.05,5.19-68.14,5.34-102.18.16-9.48-1.44-5.67,4.15-4.44,7.76,7.84,22.92,32.32,39.64,55.76,38.36,27.51-1.5,48.88-19.39,54.69-46.01Zm157.64,226.98c10.1,0,20.21-.02,30.31,0,3.45,0,6.15.15,5.96-5.05-.47-12.69-.3-25.42-.14-38.13.05-3.95-.79-6.04-5.3-6-20.86.16-41.72.18-62.58.06-4.27-.02-5.65,1.57-5.58,5.75.2,12.38.31,24.78-.04,37.15-.16,5.56,2.38,6.39,7.05,6.28,10.1-.25,20.21-.08,30.31-.08Zm-427.44.01c10.12,0,20.24-.16,30.35.07,4.77.11,7.15-1.05,7-6.49-.33-12.07-.34-24.16,0-36.22.16-5.37-1.93-6.53-6.85-6.48-20.23.21-40.47.19-60.7-.07-4.9-.06-6.09,1.69-5.99,6.25.26,11.74.28,23.5,0,35.24-.14,5.76,1.66,8.15,7.79,7.85,9.44-.46,18.92-.12,28.39-.14Z"/>
    <path d="m196.2,163.67c-.04,10.97-8.05,18.99-19.03,19.07-10.85.07-20.17-9.06-20.01-19.6.15-9.79,9.67-19.31,19.54-19.56,10.44-.26,19.53,9.12,19.49,20.09Z"/>
    <path d="m502.44,553.14c-19.61-.53-36.13-6.25-48.66-20.71-9.11-10.52-8.7-21.57.43-29.44,8.81-7.59,19.04-6.49,28.51,3.07,10.65,10.75,27.76,10.49,38.17-.59,8.7-9.26,20.15-10.79,28.66-3.83,9.12,7.46,9.76,18.83,1.14,29.51-12.59,15.61-29.73,21.37-48.25,21.99Z"/>
    <path d="m360.75,441.25c16.11.26,29.39,13.52,29.34,29.29-.05,16.32-13.67,29.55-30.24,29.37-16.3-.18-28.86-13.76-28.47-30.8.35-15.44,13.71-28.11,29.37-27.86Z"/>
    <path d="m672.48,470.37c.04,16.49-12.41,29.3-28.69,29.53-16.17.22-30.09-13.55-29.98-29.65.11-15.73,13.77-29.14,29.55-29.01,16.34.14,29.08,12.89,29.12,29.13Z"/>
    <path d="m501.96,872.53c15.98,0,31.96-.13,47.93.04,12.31.14,20.4,7.69,20.63,18.79.22,10.88-7.9,19.94-19.63,20.08-32.6.38-65.22.35-97.82.02-11.4-.12-19.89-9.46-19.73-20.14.17-10.94,8.52-18.67,20.68-18.77,15.98-.13,31.96-.03,47.93-.02Z"/>
  </g>
</svg>