<?xml version="1.0" encoding="UTF-8"?>
<svg id="Layer_1" data-name="Layer 1" xmlns="http://www.w3.org/2000/svg" viewBox="0 0 905.57 890.78">
  <path d="m452.54,890.7c-143.21,0-286.41.01-429.62-.01-20.4,0-25.09-5.95-22.09-26.2,3.12-21.1,4.2-42.53,10.25-63.13,10.42-35.47,31.91-62.56,64.66-79.3,70.52-36.06,141.36-71.49,212.49-106.34,21.42-10.5,35.85-28.72,53.75-43.06,3.54-2.84,6.89-5.99,10.74-8.34,7.05-4.29,9.35-18.97,2.76-24.36-42.11-34.42-55.5-83.16-66.93-132.94-.07-.31-.03-.65-.1-.97-1.19-5.69-1.06-12.21-3.94-16.86-3.49-5.64-10.75-1.81-16.29-2.68-29.6-4.67-50.1-27.98-49.94-58.02.07-13.28-1.48-26.63,1.75-39.84,5.72-23.34,27.61-41.53,51.14-42.44,3.34-.13,9.18,2.46,9.2-3.72.02-6.03,3.71-13.21-5.6-17.43-30.24-13.7-48.13-38.28-56-69.7-8.51-33.98,1.17-64.14,23.58-90.42C279.08,21.86,325.68-.27,382.46.33c24.69.26,49.4-1.64,74.07,1.52,30.35,3.9,57.86,14.87,81.72,33.67,9.28,7.31,18.57,11.59,30.06,13.53,25.71,4.36,44.35,19.06,56.29,42.14,23.35,45.1,26.19,92.13,12.89,140.62-.17.62-.42,1.23-.68,1.83-3.76,8.88-1.34,12.55,8.68,14.92,24.12,5.7,41.18,28.16,41.22,52.85.02,13.91,1.94,27.95-1.62,41.75-6.69,25.96-28.58,43.61-55.27,43.45-7.86-.05-10.41,2.51-11.61,10-4.88,30.51-13.49,60.03-26.1,88.27-9.3,20.83-23.39,38.14-40.37,53.24-9.13,8.12-7.17,20.33,2.32,27.28,10.45,7.64,19.85,16.79,29.25,25.77,10.88,10.39,22.63,19.07,36.27,25.8,67.25,33.16,134.17,66.98,201.33,100.33,39.96,19.84,66.4,50.57,75.58,94.56,4.22,20.23,6.45,40.9,8.92,61.44,1.18,9.83-5.53,16.66-15.47,17.35-2.92.2-5.86.08-8.79.08-142.88,0-285.76,0-428.64,0v-.04Zm.24-31.15c106.08,0,212.16-.07,318.24.15,7.42.02,9.99-1.59,9.89-9.56-.44-37.09-.28-74.19-.08-111.28.03-4.87-1.39-7.53-5.86-9.74-38.15-18.86-76.21-37.92-114.21-57.09-4.64-2.34-7.99-2.36-12.16,1.29-9.29,8.14-18.49,16.64-28.86,23.21-16.92,10.72-25.49,24.63-25.61,45.13-.17,27.15-17.99,30.45-34.43,14.29-4.97-4.89-8.37-3.7-13.11.2-26.86,22.12-53.91,44.02-80.97,65.9-10.38,8.39-15.64,8.44-25.92.16-23.8-19.17-47.55-38.39-71.18-57.77-15.25-12.51-15.13-12.65-31.3-2.24-11.49,7.4-23.27,2.09-25.2-11.47-.92-6.42-.9-13.03-2.39-19.29-1.71-7.2.44-15.35-7.28-21.17-15.31-11.52-30.05-23.84-44.68-36.23-5.05-4.27-9.03-4.05-14.7-1.17-37.35,18.96-74.85,37.63-112.44,56.1-4.87,2.39-6.28,5.22-6.24,10.45.23,36.77.4,73.54-.08,110.31-.11,8.36,2.51,10.01,10.35,9.99,106.08-.26,212.16-.17,318.24-.17Zm-140.88-566.1c-1.65,80.42,6.66,116.28,23.56,164.32,18.04,51.3,63.18,84.53,115.33,85.29,52.59.76,98.28-31.52,117.97-82.94,14.26-37.24,21.94-75.88,24.06-115.52,1.13-21.06,2.45-42.6-.64-63.28-4.19-28-19.53-51.21-40.77-70.26-4.77-4.28-8.84-5.57-15.41-3.16-50.14,18.39-102.01,27.18-155.45,26.73-20.16-.17-40.33.27-60.49-.06-6.31-.1-8.46,1.62-8.29,8.14.43,16.9.14,33.82.14,50.74Zm293.47-65.44c11.8-35.9,11.38-69.78-.06-103.83-9.63-28.67-26.26-47.47-59.09-46.05-6.48.28-10.55-4.31-14.87-8.27-21.89-20.05-47.45-32.47-76.9-36.71-25.58-3.68-51.32-1.99-76.94-1.57-48.56.79-87.65,21.23-116.48,60.44-16.99,23.12-18.34,47.99-5.3,73.23,12.85,24.88,33.47,38.16,61.88,38.23,20.82.05,41.63-.28,62.45-.09,52.46.48,103.35-8.19,152.09-27.49,13.72-5.43,23.13-2.09,33.48,6.52,15.33,12.76,28.23,27.47,39.74,45.57Zm-265.55,492.76c28.92-22.67,56.18-44.02,83.41-65.41,3.2-2.52,2.32-4.64-.62-6.95-19.66-15.41-39.27-30.88-58.79-46.46-3.11-2.48-5.29-2.66-8.28.29-6.01,5.91-12.02,11.96-18.77,16.95-6.61,4.89-8.38,10.6-7.35,18.4,3.57,26.89,6.76,53.83,10.4,83.17Zm225.55-.24c3.67-31.1,7.07-60.26,10.59-89.4.39-3.25-.53-5.57-2.93-7.71-7.78-6.9-15.52-13.85-23.12-20.95-2.77-2.59-4.82-3.37-8.25-.62-19.27,15.45-38.69,30.71-58.18,45.89-4.27,3.33-4.05,5.5.24,8.73,8.82,6.64,17.19,13.88,25.89,20.69,18.04,14.13,36.16,28.14,55.77,43.37Zm246.54,27.19c0,36.59.03,71.32-.05,106.06,0,3.91.88,5.9,5.4,5.84,16.56-.21,33.13-.13,49.7-.02,4.49.03,5.23-1.52,4.44-5.91-2-11.15-2.69-22.55-4.91-33.64-6.42-32.02-23.98-55.92-54.58-72.33Zm-359.4,44.19c2.41-1.7,4.59-3.05,6.56-4.65,17.17-13.9,34.32-27.84,51.45-41.78,18.59-15.13,18.5-15.01-1.43-29.21-3.59-2.56-5.6-2.68-9.02.18-11.73,9.78-23.71,19.25-35.76,28.62-9.29,7.23-15.44,6.93-24.29-.78-6.61-5.76-13.16-11.59-19.62-17.53-18.83-17.3-18.72-17.19-38.18.24-4.13,3.7-3.84,5.6.22,8.82,21.87,17.38,43.57,34.95,65.34,52.45,1.47,1.18,2.99,2.31,4.73,3.65Zm-419.57,67.66c17.66,0,34.84-.34,52,.16,7.22.21,8.48-2.59,8.41-9.03-.31-31.2-.39-62.41-.03-93.61.09-8.12-1.92-9.02-8.34-4.84-20,13-34.53,30.36-42.39,52.99-5.99,17.26-6.46,35.5-9.65,54.33Zm482.15-285.02c.05-13.22.03-13.26-11.07-9.36-17.31,6.09-35.12,9.3-53.48,9.05-18.32-.25-36.01-3.96-53.22-10.14-2.23-.8-4.59-3.24-6.85-.31-2.48,3.22.3,19.68,3.85,22.48,17.6,13.91,35.44,27.53,52.81,41.72,4.65,3.8,7.45,3.06,11.62-.32,16.16-13.12,32.4-26.14,49.01-38.69,5.51-4.16,8.85-8.39,7.33-14.44Zm-234.16-257.86c-.06,0-.12,0-.17,0,0-10.72-.35-21.45.13-32.15.29-6.44-2.37-7.67-8.03-7.24-12.6.96-22.71,10.95-23.36,24.37-.47,9.72-.39,19.49-.05,29.23.46,13.19,11.12,23.7,24.29,24.73,5.13.4,7.69-.63,7.35-6.8-.59-10.68-.16-21.43-.16-32.14Zm343.42.49c0,7.49,0,14.97,0,22.46,0,.98-.02,1.95-.05,2.93-.36,14.02,3.65,16.57,16.78,10.39,6.09-2.87,10.99-7.22,12.63-14.01,3.48-14.38,3.37-29.05.5-43.37-2.2-10.95-11.48-17.42-21.49-18.14-5.85-.42-8.45,1.61-8.38,7.53.14,10.74.04,21.48.01,32.22Zm-171.03,396.36c2.37-1.78,4.5-3.24,6.49-4.88,5.97-4.95,16.43-9.74,16.69-15.01.34-7.01-10.71-10.56-16.74-15.72-2.33-1.99-4.79-6.06-8.07-4.17-8.13,4.69-17.28,9.62-21.34,17.72-1.89,3.77,7.46,8.49,11.79,12.69,2.33,2.26,4.74,4.45,7.2,6.58,1.18,1.02,2.55,1.8,3.98,2.8Zm169.81-59.49q-16.68-10.31-18.77,7.17c-.26,2.16-.66,4.31-1.13,7.32,7.87-3.57,12.98-9.32,19.9-14.49Zm-321.53,14c-.62-6.19-1.14-11.55-1.69-16.92-.44-4.37-2.36-5.62-6.38-3.25-3.23,1.91-8.39,2.5-9.1,6.12-.66,3.35,3.9,5.4,6.7,7.39,3.05,2.16,5.32,5.54,10.47,6.66Z"/>
  <path d="m452.47,468.87c-24.7,0-49.4.05-74.1-.02-14.14-.04-19.96-6.22-19.48-20.39,1-29.43,21.99-58,51.3-68.3,7.97-2.8,12.32-5.5,11.46-15.08-.88-9.82,6.23-16.76,14.87-17.05,8.75-.3,16.52,7.12,15.71,17.29-.78,9.83,3.77,10.1,11.3,10,34.79-.47,60.46,14.6,75.74,46.18,4.4,9.1,6.63,18.94,6.91,29.08.33,11.7-5.78,18.15-17.66,18.23-25.35.17-50.7.05-76.05.07Zm.19-31.17c16.88,0,33.76.04,50.64-.05,2.45-.01,5.72,1.25,7.19-1.2,1.78-2.96-1.05-5.46-2.57-7.8-6.83-10.45-16.08-17.88-28.42-20.47-16.67-3.5-33.66-2.73-50.34-.85-14.14,1.59-25.08,9.85-32.59,22.24-3.33,5.49-3.79,8.5,4.48,8.29,17.19-.44,34.41-.13,51.61-.16Z"/>
  <path d="m382.47,281.32c-7.79,0-15.6.25-23.38-.06-9.15-.37-15.69-6.89-15.83-15.2-.15-8.67,6.65-15.59,16.27-15.75,14.93-.26,29.87-.24,44.81,0,9.85.16,16.62,6.61,16.83,15.32.23,9-6.71,15.41-17.28,15.69-7.14.19-14.29.04-21.43.02Z"/>
  <path d="m523.16,250.25c7.47,0,14.96-.23,22.42.06,9.54.37,16.41,7.3,16.28,15.92-.12,8.2-6.71,14.83-16.01,15.02-15.26.33-30.54.28-45.81.02-9.63-.17-16.44-7.17-16.2-15.83.24-8.67,7.12-14.97,16.9-15.19,7.47-.17,14.95-.03,22.42-.03v.03Z"/>
  <path d="m405.57,312.11c.23,10.26-8.43,19.41-18.84,19.89-9.93.46-19.57-8.57-20.04-18.77-.5-10.82,8.43-20.07,19.37-20.08,10.75-.01,19.26,8.27,19.51,18.96Z"/>
  <path d="m518.53,293.17c10.81-.11,19.48,8.01,19.86,18.61.38,10.62-8.88,20.22-19.5,20.22-10.08,0-19.31-9.24-19.4-19.42-.09-10.42,8.62-19.31,19.05-19.41Z"/>
</svg>