<?xml version="1.0" encoding="UTF-8"?>
<svg id="Layer_1" data-name="Layer 1" xmlns="http://www.w3.org/2000/svg" viewBox="0 0 1000 1000">
  <defs>
    <style>
      .cls-1 {
        fill: none;
        opacity: 0;
      }
    </style>
  </defs>
  <g>
    <path d="m855.47,998.96c-7.78-4.65-9.91-11.49-9.89-20.43.03-18.04,1.41-36.11-1.15-54.15-4.11-28.99-19.97-49.08-45.86-61.51-31.36-15.05-63.03-29.47-94.35-44.62-6.02-2.91-8.86-.7-11.87,3.67-25.06,36.29-58.12,62.97-98.56,80.08-57.72,24.42-116.19,25.68-174.94,3.32-5.11-1.94-10.29-3.82-15.14-6.32-7.42-3.82-10.36-11.8-7.46-18.78,2.85-6.86,10.61-10.52,18.43-7.42,23.12,9.16,46.55,16.86,71.6,18.5,59.76,3.91,111.6-14.63,155.71-54.95,9.06-8.28,16.84-17.77,24.45-27.43,4.05-5.15,3.09-7.23-2.51-9.74-17.04-7.65-33.83-15.86-50.81-23.63-21.67-9.91-32.36-26.43-31.76-50.45.37-14.84-.24-29.71-.07-44.56.06-5.92-.8-8.21-7.58-5.68-47.45,17.76-95.05,17.61-142.46-.16-6.94-2.6-7.57-.08-7.5,5.77.19,16.15-.11,32.3-.04,48.45.09,21.79-10.52,36.52-29.76,45.64-17.19,8.14-34.31,16.42-51.65,24.22-5.96,2.68-7.84,4.66-3.14,10.73,9.54,12.31,19.79,23.82,31.65,33.92,5.5,4.68,7.35,10.8,5.28,17.44-1.63,5.22-6.05,8.08-11.6,9.05-5.39.95-9.28-1.76-13-4.92-14.83-12.62-27.75-26.98-38.89-42.95-2.62-3.76-4.75-7.13-10.8-4.21-32.51,15.67-65.54,30.29-97.81,46.43-29.55,14.77-43.43,40.18-44.43,72.77-.43,13.88-.57,27.8.12,41.66.45,9.03-2.24,15.65-9.91,20.28h-9.69c-7.19-5.06-10.05-11.94-9.72-20.73.83-21.9-2.11-44.01,2.78-65.67,8.51-37.69,31.92-62.76,66.58-78.82,60.24-27.9,120.11-56.62,180.33-84.57,10.51-4.88,15.11-11.52,14.76-23.16-.61-20.66-.37-41.35-.03-62.02.09-5.51-1.72-8.78-6.19-11.84-31.7-21.71-54.97-50.45-70.31-85.63-1.71-3.91-4.05-7.22-6.92-10.36-35.88-39.35-58.77-85.36-67.81-137.72-19.16-111.06,29.19-223.11,126.88-281.98,5.64-3.4,8.61-6.98,9.14-14.14,4.28-58.32,42.92-101.6,97.17-113.41,64.08-13.96,128.54,24.27,145.87,91.5.72,2.8,2.12,5.74,1.8,8.45-2.09,17.62,8.15,26.02,21.62,35.17,65.5,44.49,103.99,106.54,116.44,184.87,7.25,45.56,2.53,89.89-12.32,133.27-1.97,5.76-3.01,11.15-1.13,16.71,3.86,11.47,3.45,23.5,5.06,35.26,1.29,9.45-4.18,16.7-12.33,17.74-9.45,1.21-15.46-3.64-16.23-14.57-2.21-31.61-10.34-60.92-31.46-85.48-15.97-18.58-35.59-32.7-56.26-45.46-33.49-20.68-69.09-37.66-102.35-58.78-20.53-13.03-39.81-27.51-56.45-45.32-2.82-3.02-4.87-5.66-8.91-.91-21.87,25.64-50.47,43.06-77.29,62.63-15.15,11.06-30.18,22.19-42.73,36.3-11.76,13.21-19.34,28.42-19.34,46.21,0,29.97-2.25,60.07,3.05,89.85,9.86,55.39,39.73,97.13,89.43,122.72,97.24,50.04,210.85,1.88,244.06-102.4,3.2-10.06,5.42-20.49,6.12-31.14.14-2.21.7-4.41,1.21-6.59,1.98-8.51,7.29-12.89,16.07-11.68,9,1.24,12.41,7.48,12,15.9-1.32,26.8-9.11,51.85-21.2,75.62-15.08,29.65-36.5,53.88-63.8,72.79-5.11,3.54-7.12,7.35-7.02,13.5.34,20.67.51,41.36.01,62.03-.26,10.89,4.31,17.26,13.95,21.76,60.42,28.22,120.58,56.99,181.07,85.06,46.49,21.57,69.46,57.58,69.17,108.67-.07,11.63-.47,23.29.17,34.88.51,9.21-2.18,16.3-9.77,21.49h-9.69ZM301.15,489.51c0-11.51-.15-23.03.03-34.54.26-16.73-1.35-33.58,2.83-50.09,6.38-25.21,22.36-43.98,41.22-60.65,18.42-16.27,39.07-29.64,58.9-44.06,16.72-12.17,33.24-24.55,46.6-40.62,3.82-4.59,4.47-8.56.92-13.73-4-5.81-7.4-12.11-9.22-19.03-2-7.61.74-13.33,7.66-16.83,6.82-3.45,12.59-1.13,17.19,4.29,2.06,2.42,3.62,5.35,5.04,8.23,12.85,26.07,32.04,46.65,54.97,64.07,30.73,23.34,65.27,40.3,98.66,59.17,32.12,18.15,63.55,37.19,88.19,65.38,4.96,5.67,9.41,11.79,15.02,18.87,11.18-49.27,9.19-96.01-6.82-142.27-38.09-110.06-149.43-176.73-262.83-154.62-74.94,14.61-129.48,58.6-164.35,126.27-24.84,48.2-31.56,99.7-23.12,153.03,4.33,27.39,13.29,53.42,29.11,77.15Zm108.82-372.57c62.12-23.53,123.57-22.83,185.42-.14-6.89-47.97-46.35-81.24-92.95-81.13-47.48.11-86.02,34.2-92.47,81.28Z"/>
    <path d="m501.95,575.91c-19.29-1.37-38.86-4.18-55.29-17.33-8.13-6.5-10.02-13.51-5.14-20.77,4.79-7.11,12.5-8.2,21.07-3.03,26.64,16.08,53.31,16.24,79.93-.03,8.54-5.22,16.03-4.23,21.07,2.99,5.09,7.29,3.43,14.44-4.73,20.81-16.53,12.89-36.05,16.11-56.9,17.36Z"/>
    <path d="m601.75,437.7c-.04,18.42-4.39,24.89-14.84,24.6-9.69-.27-14.29-7.39-14.35-22.2-.02-4.18-.08-8.3,1.63-12.33,2.91-6.86,8-9.98,15.24-8.96,7.19,1.01,11.63,5.1,12.04,12.74.16,2.89.28,5.79.29,6.15Z"/>
    <path d="m403.72,439.8c0-2.57-.08-5.15.01-7.72.29-8.08,4.96-12.35,12.56-13.23,7.23-.84,12.4,2.44,14.82,9.45,2.48,7.19,2.17,14.65.7,21.87-1.68,8.26-6.9,12.91-15.87,11.87-8.58-.99-11.94-6.55-12.31-14.53-.12-2.57-.02-5.14-.02-7.72.03,0,.07,0,.1,0Z"/>
  </g>
  <rect class="cls-1" width="1000" height="1000"/>
</svg>